<svg width="58" height="64" viewBox="0 0 58 64" fill="none" xmlns="http://www.w3.org/2000/svg">
<path d="M41.9938 0H16.0056C7.1801 0 0 7.92325 0 17.6617V46.3383C0 56.0771 7.1801 64 16.0056 64H41.9938C50.8199 64 58 56.0768 58 46.3383V17.6617C58.0003 7.92325 50.8199 0 41.9938 0ZM52.8543 46.3383C52.8543 52.9461 47.9824 58.3216 41.9941 58.3216H16.0056C10.0176 58.322 5.14604 52.9461 5.14604 46.3383V17.6617C5.14604 11.0543 10.0176 5.67839 16.0056 5.67839H41.9938C47.982 5.67839 52.854 11.0543 52.854 17.6617L52.8543 46.3383Z" fill="#2F2E41"/>
<path d="M29.0001 15.5095C20.7592 15.5095 14.0549 22.9073 14.0549 32.0007C14.0549 41.0937 20.7592 48.4911 29.0001 48.4911C37.2409 48.4911 43.9452 41.0937 43.9452 32.0007C43.9452 22.9073 37.2409 15.5095 29.0001 15.5095ZM29.0001 42.8124C23.5971 42.8124 19.201 37.9623 19.201 32.0003C19.201 26.038 23.5967 21.1875 29.0001 21.1875C34.4034 21.1875 38.7992 26.038 38.7992 32.0003C38.7992 37.9623 34.4031 42.8124 29.0001 42.8124Z" fill="#2F2E41"/>
<path d="M44.5719 10.6948C43.5804 10.6948 42.6064 11.1377 41.9062 11.9138C41.2026 12.686 40.7981 13.7612 40.7981 14.859C40.7981 15.9534 41.2029 17.0281 41.9062 17.8042C42.6061 18.5764 43.5804 19.0231 44.5719 19.0231C45.5668 19.0231 46.5376 18.5764 47.2409 17.8042C47.9442 17.0281 48.3456 15.953 48.3456 14.859C48.3456 13.7612 47.9442 12.686 47.2409 11.9138C46.5411 11.1377 45.5668 10.6948 44.5719 10.6948Z" fill="#2F2E41"/>
</svg>
