<svg width="34" height="34" viewBox="0 0 34 34" fill="none" xmlns="http://www.w3.org/2000/svg">
<path d="M24.6169 0H9.38251C4.209 0 0 4.2092 0 9.38271V24.6171C0 29.7908 4.209 33.9998 9.38251 33.9998H24.6169C29.7908 33.9998 33.9998 29.7906 33.9998 24.6171V9.38271C34 4.2092 29.7908 0 24.6169 0ZM30.9834 24.6171C30.9834 28.1274 28.1274 30.9832 24.6171 30.9832H9.38251C5.87237 30.9834 3.01663 28.1274 3.01663 24.6171V9.38271C3.01663 5.87257 5.87237 3.01663 9.38251 3.01663H24.6169C28.1272 3.01663 30.9832 5.87257 30.9832 9.38271L30.9834 24.6171Z" fill="white"/>
<path d="M16.9999 8.23941C12.1691 8.23941 8.23901 12.1695 8.23901 17.0003C8.23901 21.8309 12.1691 25.7608 16.9999 25.7608C21.8307 25.7608 25.7608 21.8309 25.7608 17.0003C25.7608 12.1695 21.8307 8.23941 16.9999 8.23941ZM16.9999 22.744C13.8326 22.744 11.2556 20.1674 11.2556 17.0001C11.2556 13.8326 13.8324 11.2558 16.9999 11.2558C20.1674 11.2558 22.7442 13.8326 22.7442 17.0001C22.7442 20.1674 20.1672 22.744 16.9999 22.744Z" fill="#FDFBF9"/>
<path d="M26.1282 5.68152C25.547 5.68152 24.9761 5.91682 24.5656 6.32909C24.1531 6.73935 23.916 7.3105 23.916 7.89371C23.916 8.47512 24.1533 9.04606 24.5656 9.45833C24.9759 9.8686 25.547 10.1059 26.1282 10.1059C26.7114 10.1059 27.2806 9.8686 27.6928 9.45833C28.1051 9.04606 28.3404 8.47491 28.3404 7.89371C28.3404 7.3105 28.1051 6.73935 27.6928 6.32909C27.2826 5.91682 26.7114 5.68152 26.1282 5.68152Z" fill="white"/>
</svg>
