<svg width="332" height="233" viewBox="0 0 332 233" fill="none" xmlns="http://www.w3.org/2000/svg">
<g clip-path="url(#clip0)">
<path d="M192.641 227.83C190.174 229.6 187.5 231.06 184.679 232.178C183.939 232.474 183.196 232.749 182.44 233H143.868C143.712 232.729 143.56 232.453 143.404 232.178C140.275 226.573 137.437 220.75 136.632 214.417C135.667 206.815 138.373 198.206 145.063 194.471C145.939 193.982 146.868 193.593 147.831 193.312C148.229 193.189 148.636 193.09 149.046 193.004C151.554 192.447 154.164 192.568 156.609 193.355C159.054 194.143 161.246 195.568 162.958 197.483C164.671 199.399 165.842 201.737 166.353 204.256C166.863 206.775 166.694 209.384 165.863 211.816C171.534 205.997 170.474 196.562 168.519 188.676C166.561 180.791 164.187 172.013 168.174 164.929C170.388 160.988 174.285 158.543 178.654 157.556C178.79 157.528 178.925 157.499 179.057 157.474C184.266 156.418 189.682 157.368 194.222 160.133C202.583 165.401 206.874 175.399 208.266 185.188C210.513 200.943 205.544 218.523 192.641 227.83Z" fill="#F2F2F2"/>
<path d="M152.073 198.025C155.161 204.299 156.146 211.402 154.881 218.28C153.928 223.324 151.826 228.079 148.738 232.178C148.529 232.458 148.315 232.733 148.098 233H146.574C146.808 232.733 147.038 232.458 147.256 232.178C150.06 228.682 152.093 224.632 153.221 220.294C154.349 215.956 154.547 211.428 153.802 207.008C152.917 202.036 150.871 197.343 147.831 193.312C148.229 193.189 148.636 193.09 149.046 193.004C150.203 194.584 151.215 196.265 152.073 198.025Z" fill="white"/>
<path d="M188.974 202.574C188.644 206.049 187.81 209.457 186.498 212.691C185.288 215.553 183.657 218.218 181.66 220.598C177.583 225.509 172.187 229.203 166.327 231.66C165.899 231.841 165.468 232.014 165.033 232.178C164.277 232.474 163.514 232.745 162.746 233H158.586C159.567 232.753 160.545 232.478 161.51 232.178C163.804 231.464 166.043 230.58 168.207 229.536C173.709 226.926 178.487 223.005 182.12 218.116C186.017 212.733 187.738 206.26 188.034 199.681C188.346 192.642 187.43 185.475 185.824 178.625C184.186 171.604 181.694 164.81 178.404 158.395C178.33 158.249 178.315 158.081 178.362 157.925C178.408 157.769 178.513 157.637 178.654 157.556C178.773 157.478 178.917 157.448 179.057 157.474C179.125 157.492 179.189 157.525 179.243 157.57C179.297 157.616 179.34 157.673 179.369 157.737C179.775 158.53 180.174 159.323 180.556 160.125C183.744 166.806 186.094 173.856 187.549 181.115C188.957 188.118 189.713 195.445 188.974 202.574Z" fill="white"/>
<path d="M17.4403 116.294C14.0291 116.294 10.6945 115.282 7.85813 113.386C5.02181 111.489 2.81117 108.794 1.50576 105.64C0.200341 102.486 -0.141211 99.016 0.524284 95.668C1.18978 92.3201 2.83243 89.2448 5.24452 86.831C7.65662 84.4173 10.7298 82.7735 14.0755 82.1075C17.4211 81.4416 20.889 81.7834 24.0406 83.0897C27.1921 84.396 29.8858 86.6081 31.781 89.4464C33.6761 92.2847 34.6877 95.6216 34.6877 99.0351C34.6825 103.611 32.8637 107.998 29.6303 111.234C26.3969 114.469 22.013 116.289 17.4403 116.294ZM17.4403 82.5978C14.1915 82.5978 11.0157 83.5618 8.31443 85.368C5.61317 87.1741 3.5078 89.7413 2.26454 92.7448C1.02129 95.7484 0.696 99.0534 1.3298 102.242C1.96361 105.43 3.52804 108.359 5.82527 110.658C8.12251 112.957 11.0494 114.522 14.2357 115.157C17.4221 115.791 20.7248 115.465 23.7263 114.221C26.7277 112.977 29.2932 110.87 31.0981 108.167C32.903 105.464 33.8664 102.286 33.8664 99.0351C33.8615 94.6772 32.1293 90.4991 29.0498 87.4176C25.9704 84.3361 21.7952 82.6027 17.4403 82.5978Z" fill="#3F3D56"/>
<path d="M87.2511 60.8183C83.8399 60.8183 80.5053 59.8061 77.6689 57.9096C74.8326 56.0131 72.622 53.3176 71.3166 50.1639C70.0111 47.0102 69.6696 43.5399 70.3351 40.192C71.0006 36.844 72.6432 33.7687 75.0553 31.3549C77.4674 28.9412 80.5406 27.2974 83.8863 26.6314C87.2319 25.9655 90.6998 26.3073 93.8514 27.6136C97.0029 28.9199 99.6966 31.1321 101.592 33.9703C103.487 36.8086 104.498 40.1455 104.498 43.5591C104.493 48.1349 102.674 52.5219 99.4411 55.7575C96.2077 58.9931 91.8238 60.8131 87.2511 60.8183ZM87.2511 27.1217C84.0023 27.1217 80.8265 28.0857 78.1252 29.8919C75.424 31.698 73.3186 34.2652 72.0753 37.2687C70.8321 40.2723 70.5068 43.5773 71.1406 46.7658C71.7744 49.9544 73.3388 52.8832 75.6361 55.1821C77.9333 57.4809 80.8602 59.0464 84.0465 59.6806C87.2329 60.3149 90.5356 59.9893 93.5371 58.7452C96.5386 57.5011 99.104 55.3943 100.909 52.6912C102.714 49.9881 103.677 46.8101 103.677 43.5591C103.672 39.2011 101.94 35.0231 98.8606 31.9415C95.7812 28.86 91.606 27.1266 87.2511 27.1217Z" fill="#3F3D56"/>
<path d="M161.99 34.5185C158.579 34.5185 155.244 33.5063 152.408 31.6098C149.571 29.7133 147.361 27.0178 146.055 23.8641C144.75 20.7104 144.408 17.2401 145.074 13.8922C145.739 10.5442 147.382 7.46888 149.794 5.05513C152.206 2.64137 155.279 0.997591 158.625 0.331639C161.971 -0.334313 165.439 0.00747927 168.59 1.31379C171.742 2.6201 174.435 4.83226 176.331 7.67053C178.226 10.5088 179.237 13.8457 179.237 17.2593C179.232 21.8351 177.413 26.2221 174.18 29.4577C170.946 32.6933 166.563 34.5133 161.99 34.5185ZM161.99 0.821875C158.741 0.821875 155.565 1.78591 152.864 3.59207C150.163 5.39824 148.057 7.96541 146.814 10.9689C145.571 13.9725 145.246 17.2775 145.879 20.466C146.513 23.6546 148.078 26.5834 150.375 28.8823C152.672 31.1811 155.599 32.7466 158.785 33.3808C161.972 34.0151 165.274 33.6895 168.276 32.4454C171.277 31.2013 173.843 29.0945 175.648 26.3914C177.453 23.6883 178.416 20.5103 178.416 17.2593C178.411 12.9013 176.679 8.72325 173.599 5.64171C170.52 2.56016 166.345 0.826793 161.99 0.821875Z" fill="#3F3D56"/>
<path d="M241.657 61.6401C238.245 61.6401 234.911 60.6279 232.074 58.7314C229.238 56.8349 227.027 54.1394 225.722 50.9857C224.417 47.832 224.075 44.3617 224.741 41.0137C225.406 37.6658 227.049 34.5905 229.461 32.1767C231.873 29.763 234.946 28.1192 238.292 27.4532C241.637 26.7873 245.105 27.1291 248.257 28.4354C251.408 29.7417 254.102 31.9538 255.997 34.7921C257.892 37.6304 258.904 40.9673 258.904 44.3808C258.899 48.9567 257.08 53.3436 253.847 56.5793C250.613 59.8149 246.229 61.6349 241.657 61.6401ZM241.657 27.9435C238.408 27.9435 235.232 28.9075 232.531 30.7137C229.829 32.5198 227.724 35.087 226.481 38.0905C225.238 41.0941 224.912 44.3991 225.546 47.5876C226.18 50.7762 227.744 53.705 230.042 56.0038C232.339 58.3026 235.266 59.8682 238.452 60.5024C241.638 61.1366 244.941 60.8111 247.943 59.567C250.944 58.3229 253.509 56.2161 255.314 53.513C257.119 50.8099 258.083 47.6319 258.083 44.3808C258.078 40.0229 256.346 35.8448 253.266 32.7633C250.187 29.6817 246.012 27.9484 241.657 27.9435Z" fill="#3F3D56"/>
<path d="M314.753 103.145C311.341 103.145 308.007 102.132 305.17 100.236C302.334 98.3393 300.123 95.6438 298.818 92.4901C297.513 89.3364 297.171 85.8661 297.837 82.5181C298.502 79.1702 300.145 76.0949 302.557 73.6811C304.969 71.2674 308.042 69.6236 311.388 68.9576C314.733 68.2917 318.201 68.6335 321.353 69.9398C324.504 71.2461 327.198 73.4582 329.093 76.2965C330.988 79.1348 332 82.4717 332 85.8853C331.995 90.4611 330.176 94.848 326.943 98.0837C323.709 101.319 319.325 103.139 314.753 103.145ZM314.753 69.4479C311.504 69.4479 308.328 70.4119 305.627 72.2181C302.925 74.0242 300.82 76.5914 299.577 79.5949C298.334 82.5985 298.008 85.9035 298.642 89.092C299.276 92.2806 300.84 95.2094 303.138 97.5082C305.435 99.8071 308.362 101.373 311.548 102.007C314.734 102.641 318.037 102.316 321.039 101.071C324.04 99.8273 326.605 97.7205 328.41 95.0174C330.215 92.3143 331.179 89.1363 331.179 85.8853C331.174 81.5273 329.442 77.3492 326.362 74.2677C323.283 71.1861 319.108 69.4528 314.753 69.4479Z" fill="#3F3D56"/>
<path d="M97.1068 38.8324L99.1601 38.4214C99.1601 38.4214 97.4353 40.3528 97.1068 40.4761C97.0761 40.8865 97.0761 41.2985 97.1068 41.7089C93.1645 58.6394 78.6274 51.1604 78.6274 51.1604C83.9249 51.2837 84.3766 49.1057 84.3766 49.1057C81.2967 48.6537 80.6807 46.6401 80.6807 46.6401C80.957 46.786 81.2774 46.8247 81.5805 46.7489C81.8836 46.6731 82.1481 46.488 82.3233 46.2292C78.997 45.3662 79.4487 42.1198 79.4487 42.1198C80.0416 42.5482 80.7345 42.817 81.4609 42.9006C81.0914 42.4486 77.9704 38.7091 79.8594 36.7777C79.8594 36.7777 82.159 40.887 88.1956 41.2569L88.6063 41.1747C88.5365 40.8787 88.5088 40.5743 88.5242 40.2706C88.5242 39.1263 88.9784 38.0288 89.7871 37.2196C90.5957 36.4104 91.6924 35.9558 92.836 35.9558C95.7106 35.9558 96.3266 37.5995 96.3266 37.5995L98.3798 36.3667C98.3388 36.3667 98.1334 38.4214 97.1068 38.8324Z" fill="#3F3D56"/>
<path d="M228.24 221.754L232.761 223.972L243.459 207.578L236.788 204.305L228.24 221.754Z" fill="#FFB8B8"/>
<path d="M227.811 219.711L236.713 224.078L236.714 224.079C237.459 224.444 238.125 224.953 238.673 225.576C239.222 226.199 239.642 226.924 239.911 227.709C240.179 228.495 240.291 229.326 240.238 230.155C240.186 230.983 239.971 231.793 239.606 232.539L239.515 232.724L224.939 225.573L227.811 219.711Z" fill="#2F2E41"/>
<path d="M273.04 229.484L278.075 229.483L280.469 210.051H273.039L273.04 229.484Z" fill="#FFB8B8"/>
<path d="M271.756 226.195L281.67 226.195H281.671C282.5 226.195 283.322 226.358 284.089 226.676C284.855 226.994 285.552 227.46 286.139 228.047C286.725 228.634 287.191 229.331 287.508 230.098C287.826 230.865 287.989 231.687 287.989 232.518V232.723L271.756 232.724L271.756 226.195Z" fill="#2F2E41"/>
<path d="M262.226 95.3735C267.796 95.3735 272.312 90.8547 272.312 85.2805C272.312 79.7063 267.796 75.1875 262.226 75.1875C256.655 75.1875 252.14 79.7063 252.14 85.2805C252.14 90.8547 256.655 95.3735 262.226 95.3735Z" fill="#FFB8B8"/>
<path d="M272.269 223.074C271.793 223.074 271.336 222.889 270.993 222.56C270.649 222.231 270.446 221.781 270.425 221.306L266.527 169.379C266.522 169.243 266.473 169.113 266.386 169.008C266.3 168.902 266.181 168.829 266.048 168.799C265.916 168.768 265.777 168.783 265.653 168.84C265.53 168.897 265.428 168.993 265.365 169.113L240.426 216.758C240.199 217.186 239.815 217.508 239.355 217.656C238.895 217.805 238.396 217.768 237.962 217.554L231.01 214.076C230.574 213.856 230.242 213.473 230.086 213.01C229.931 212.547 229.964 212.042 230.179 211.603L245.061 181.428L254.918 158.824C258.722 151.325 262.762 147.46 267.269 147.009C271.892 146.548 276.829 149.728 282.365 156.735L282.41 156.792L282.409 156.865L281.588 220.296C281.589 220.757 281.418 221.201 281.107 221.541C280.797 221.882 280.371 222.093 279.912 222.134L272.45 223.066C272.389 223.071 272.329 223.074 272.269 223.074Z" fill="#2F2E41"/>
<path d="M251.58 162.475C252.129 162.136 252.597 161.68 252.951 161.141C253.305 160.602 253.537 159.991 253.63 159.352C253.722 158.714 253.674 158.062 253.488 157.444C253.302 156.827 252.983 156.257 252.553 155.776L254.074 115.563L246.682 116.485L246.059 155.606C245.299 156.382 244.85 157.41 244.797 158.495C244.744 159.581 245.09 160.648 245.771 161.494C246.451 162.341 247.419 162.908 248.49 163.089C249.56 163.27 250.66 163.051 251.58 162.475Z" fill="#FFB8B8"/>
<path d="M256.256 122.673L246.33 121.544C246.047 121.512 245.775 121.419 245.532 121.273C245.288 121.126 245.079 120.928 244.919 120.693C244.759 120.458 244.651 120.191 244.603 119.911C244.556 119.631 244.569 119.343 244.642 119.068L247.204 109.437C247.377 107.992 248.115 106.674 249.257 105.773C250.399 104.872 251.851 104.46 253.295 104.629C254.74 104.797 256.059 105.532 256.963 106.672C257.866 107.812 258.282 109.264 258.117 110.71L258.456 120.639C258.466 120.923 258.414 121.207 258.305 121.469C258.195 121.731 258.031 121.967 257.822 122.16C257.613 122.353 257.365 122.499 257.095 122.587C256.825 122.676 256.539 122.705 256.256 122.673V122.673Z" fill="#F9A826"/>
<path d="M299.016 97.3596C298.966 97.5813 298.933 97.8067 298.918 98.0336L281.277 108.217L276.989 105.747L272.418 111.736L279.584 116.847C280.163 117.259 280.861 117.473 281.571 117.456C282.282 117.439 282.968 117.191 283.526 116.75L301.716 102.39C302.537 102.694 303.431 102.741 304.28 102.524C305.128 102.307 305.89 101.837 306.464 101.177C307.039 100.516 307.399 99.6956 307.497 98.8251C307.594 97.9546 307.425 97.075 307.01 96.3033C306.596 95.5317 305.957 94.9045 305.178 94.5052C304.399 94.1059 303.516 93.9535 302.649 94.0681C301.781 94.1828 300.968 94.5591 300.32 95.1471C299.671 95.7351 299.216 96.5068 299.016 97.3596Z" fill="#FFB8B8"/>
<path d="M280.688 108.7L274.986 116.094C274.824 116.304 274.618 116.477 274.383 116.601C274.148 116.725 273.889 116.796 273.624 116.811C273.359 116.825 273.094 116.782 272.847 116.685C272.6 116.588 272.376 116.438 272.192 116.247L265.738 109.54C264.666 108.704 263.969 107.476 263.801 106.126C263.633 104.777 264.006 103.415 264.84 102.341C265.673 101.267 266.898 100.567 268.247 100.395C269.595 100.224 270.956 100.595 272.032 101.426L280.127 105.956C280.359 106.086 280.56 106.264 280.716 106.479C280.873 106.693 280.982 106.939 281.035 107.199C281.088 107.46 281.085 107.728 281.025 107.987C280.965 108.246 280.85 108.489 280.688 108.7H280.688Z" fill="#F9A826"/>
<path d="M285.338 159.88L274.393 106.528C273.873 103.993 272.39 101.757 270.258 100.292C268.125 98.8272 265.508 98.2465 262.956 98.672L259.306 99.2809C258.038 99.4923 256.824 99.9517 255.733 100.633C254.642 101.314 253.696 102.203 252.949 103.25C251.762 104.913 250.962 106.821 250.609 108.835C250.255 110.848 250.357 112.915 250.907 114.883L256.949 136.521L252.465 159.703C252.415 159.96 252.427 160.225 252.5 160.477C252.574 160.728 252.706 160.958 252.886 161.148C253.067 161.338 253.29 161.482 253.537 161.568C253.784 161.654 254.048 161.68 254.307 161.643C256.552 161.321 260.252 160.862 264.502 160.612L266.804 151.726L267.741 160.471C272.961 160.325 278.628 160.581 283.303 161.796C283.573 161.869 283.858 161.871 284.129 161.802C284.401 161.734 284.65 161.597 284.854 161.405C285.058 161.213 285.209 160.972 285.294 160.705C285.379 160.438 285.394 160.154 285.338 159.88Z" fill="#F9A826"/>
<path d="M266.107 83.035C268.699 84.8105 272.103 86.6355 274.75 84.7448C276.489 83.5033 277.037 81.2044 276.332 79.187C275.064 75.559 271.581 73.9618 268.25 72.7375C263.92 71.1459 259.205 69.8798 254.735 71.0196C250.265 72.1594 246.314 76.4903 247.121 81.0353C247.77 84.6902 251.215 87.7314 250.726 91.4112C250.234 95.1146 246.072 97.064 242.398 97.7258C238.723 98.3877 234.611 98.6004 231.971 101.241C228.602 104.611 229.443 110.633 232.613 114.19C235.783 117.747 240.566 119.359 245.201 120.456C251.342 121.908 257.984 122.671 263.817 120.261C269.649 117.851 274.188 111.362 272.499 105.278C271.785 102.708 270.104 100.537 268.479 98.4221C266.854 96.3076 265.209 94.0966 264.589 91.5024C264.073 89.3406 264.455 86.8306 265.887 85.209C266.148 84.9252 266.312 84.566 266.356 84.1831C266.4 83.8002 266.321 83.4132 266.132 83.0777L266.107 83.035Z" fill="#2F2E41"/>
<path d="M166.688 8.7211C167.836 8.72454 168.937 9.18277 169.75 9.99572C170.562 10.8087 171.02 11.9103 171.023 13.06V21.7368C171.02 22.8864 170.562 23.988 169.75 24.801C168.937 25.6139 167.836 26.0722 166.688 26.0756H158.017C156.868 26.0722 155.767 25.6139 154.955 24.801C154.142 23.988 153.684 22.8864 153.681 21.7368V13.06C153.684 11.9103 154.142 10.8087 154.955 9.99572C155.767 9.18277 156.868 8.72453 158.017 8.7211H166.688ZM166.688 6.98584H158.017C156.408 6.99053 154.867 7.63198 153.73 8.77009C152.592 9.90819 151.951 11.4504 151.947 13.06V21.7368C151.951 23.3463 152.592 24.8885 153.73 26.0266C154.867 27.1647 156.408 27.8062 158.017 27.8109H166.688C168.296 27.8062 169.837 27.1647 170.974 26.0266C172.112 24.8885 172.753 23.3463 172.757 21.7368V13.06C172.753 11.4504 172.112 9.90819 170.974 8.77009C169.837 7.63198 168.296 6.99053 166.688 6.98584Z" fill="#3F3D56"/>
<path d="M167.988 13.0599C167.644 13.0592 167.315 12.9218 167.072 12.6781C166.829 12.4343 166.693 12.104 166.693 11.7598C166.693 11.4156 166.83 11.0856 167.074 10.8423C167.317 10.599 167.647 10.4624 167.991 10.4624C168.335 10.4624 168.665 10.599 168.908 10.8423C169.152 11.0856 169.289 11.4156 169.289 11.7598C169.289 12.104 169.153 12.4343 168.91 12.6781C168.667 12.9218 168.338 13.0592 167.994 13.0599C167.992 13.0599 167.99 13.0599 167.988 13.0599Z" fill="#3F3D56"/>
<path d="M162.352 13.9274C163.038 13.9274 163.709 14.131 164.279 14.5124C164.85 14.8938 165.294 15.4359 165.557 16.0701C165.819 16.7043 165.888 17.4022 165.754 18.0755C165.62 18.7489 165.29 19.3673 164.805 19.8528C164.32 20.3382 163.702 20.6688 163.029 20.8027C162.356 20.9366 161.659 20.8679 161.025 20.6052C160.391 20.3425 159.849 19.8976 159.468 19.3268C159.087 18.756 158.883 18.0849 158.883 17.3984C158.883 16.4778 159.249 15.595 159.899 14.944C160.55 14.2931 161.432 13.9274 162.352 13.9274ZM162.352 12.1921C161.323 12.1921 160.317 12.4975 159.462 13.0695C158.606 13.6416 157.939 14.4547 157.545 15.406C157.152 16.3574 157.049 17.4042 157.249 18.4141C157.45 19.424 157.946 20.3516 158.673 21.0798C159.401 21.8079 160.328 22.3037 161.337 22.5046C162.346 22.7055 163.392 22.6024 164.343 22.2083C165.294 21.8143 166.106 21.147 166.678 20.2908C167.25 19.4347 167.555 18.4281 167.555 17.3984C167.555 16.0176 167.007 14.6934 166.031 13.717C165.055 12.7407 163.732 12.1922 162.352 12.1921V12.1921Z" fill="#3F3D56"/>
<path d="M67.0053 227.547L62.105 226.392L64.226 206.928L71.4584 208.633L67.0053 227.547Z" fill="#FFB8B8"/>
<path d="M67.1359 232.596L51.3352 228.87L51.3823 228.67C51.5725 227.862 51.92 227.099 52.4048 226.426C52.8897 225.752 53.5024 225.18 54.208 224.743C54.9136 224.306 55.6983 224.013 56.5173 223.879C57.3363 223.746 58.1735 223.775 58.9811 223.966L58.9815 223.966L68.632 226.241L67.1359 232.596Z" fill="#2F2E41"/>
<path d="M86.1014 227.712H81.0668L78.6719 208.279L86.1022 208.28L86.1014 227.712Z" fill="#FFB8B8"/>
<path d="M87.3854 232.595L71.1521 232.595V232.389C71.1521 231.559 71.3155 230.737 71.633 229.97C71.9506 229.202 72.416 228.505 73.0027 227.918C73.5894 227.331 74.286 226.865 75.0526 226.548C75.8192 226.23 76.6408 226.066 77.4706 226.066H77.471L87.3857 226.067L87.3854 232.595Z" fill="#2F2E41"/>
<path d="M113.292 150.861C113.63 150.311 113.842 149.693 113.915 149.052C113.988 148.411 113.92 147.761 113.715 147.149C113.51 146.537 113.173 145.978 112.729 145.51C112.285 145.043 111.743 144.678 111.143 144.442L96.4026 107.038L88.2017 112.02L105.269 147.221C104.941 148.256 105.003 149.376 105.445 150.369C105.886 151.362 106.676 152.158 107.665 152.607C108.654 153.055 109.773 153.125 110.81 152.804C111.847 152.482 112.73 151.791 113.292 150.861Z" fill="#FFB8B8"/>
<path d="M99.5353 113.224L90.1663 116.694C89.8998 116.793 89.615 116.833 89.3316 116.812C89.0481 116.79 88.7726 116.708 88.5237 116.571C88.2749 116.433 88.0586 116.244 87.8895 116.015C87.7204 115.786 87.6026 115.524 87.5441 115.246L85.4926 105.492C84.9956 104.125 85.0608 102.616 85.674 101.296C86.2871 99.9764 87.3981 98.9539 88.7634 98.4528C90.1287 97.9516 91.6369 98.0126 92.9573 98.6224C94.2778 99.2322 95.3027 100.341 95.8074 101.706L100.583 110.416C100.72 110.665 100.801 110.941 100.822 111.225C100.842 111.508 100.801 111.793 100.702 112.06C100.602 112.326 100.447 112.568 100.245 112.769C100.044 112.97 99.8019 113.125 99.5353 113.224V113.224Z" fill="#F9A826"/>
<path d="M85.767 220.736C85.7425 220.736 85.7178 220.735 85.693 220.735L78.5569 220.449C78.0747 220.432 77.6183 220.226 77.2864 219.876C76.9545 219.525 76.7737 219.058 76.7831 218.576L77.3306 179.126C77.3329 178.967 77.2739 178.814 77.166 178.697C77.0581 178.581 76.9095 178.511 76.7512 178.502C76.5929 178.492 76.4371 178.544 76.3162 178.647C76.1953 178.75 76.1186 178.895 76.1021 179.053L71.9624 218.546C71.9193 218.948 71.7461 219.325 71.4692 219.619C71.1923 219.914 70.8268 220.11 70.4283 220.177L70.4036 220.181L63.7043 219.654C63.4402 219.695 63.1706 219.677 62.9139 219.603C62.6573 219.529 62.4197 219.4 62.2177 219.225C62.0156 219.051 61.8537 218.834 61.7433 218.591C61.6329 218.347 61.5766 218.083 61.5782 217.815L61.9787 150.924L94.8518 153.006L87.6038 219.088C87.5529 219.541 87.3376 219.958 86.9989 220.262C86.6602 220.566 86.2218 220.734 85.767 220.736Z" fill="#2F2E41"/>
<path d="M79.7582 92.5302C85.3285 92.5302 89.8442 88.0114 89.8442 82.4372C89.8442 76.863 85.3285 72.3442 79.7582 72.3442C74.1878 72.3442 69.6721 76.863 69.6721 82.4372C69.6721 88.0114 74.1878 92.5302 79.7582 92.5302Z" fill="#FFB8B8"/>
<path d="M93.2172 155.951C93.1709 155.951 93.1244 155.949 93.0777 155.946L62.6961 153.722C62.2238 153.687 61.7828 153.473 61.464 153.122C61.1453 152.772 60.9732 152.312 60.9833 151.839L61.7844 113.661C61.7307 111.318 62.1553 108.99 63.0321 106.817C63.9089 104.644 65.2196 102.674 66.8839 101.025C68.5481 99.3772 70.531 98.0861 72.7111 97.2313C74.8912 96.3764 77.2227 95.9757 79.5629 96.0537C81.9031 96.1317 84.2028 96.6868 86.3212 97.6849C88.4396 98.6831 90.3323 100.103 91.8832 101.859C93.4342 103.614 94.6109 105.668 95.3413 107.894C96.0717 110.12 96.3404 112.472 96.1311 114.806C95.5998 120.69 95.1772 146.394 95.0604 154.132C95.0529 154.617 94.8555 155.079 94.5107 155.419C94.166 155.759 93.7014 155.95 93.2172 155.951Z" fill="#F9A826"/>
<path d="M39.0746 93.772C39.125 93.9937 39.1578 94.2191 39.1728 94.446L56.8134 104.63L61.1012 102.16L65.6723 108.148L58.5062 113.259C57.9273 113.672 57.2302 113.886 56.5195 113.868C55.8088 113.851 55.1228 113.603 54.5647 113.163L36.3742 98.8024C35.5533 99.1065 34.6593 99.1532 33.8112 98.9365C32.963 98.7197 32.2009 98.2497 31.6262 97.5889C31.0515 96.9282 30.6915 96.108 30.594 95.2375C30.4965 94.367 30.6661 93.4874 31.0804 92.7157C31.4946 91.944 32.1338 91.3168 32.913 90.9175C33.6921 90.5183 34.5742 90.3658 35.4421 90.4805C36.3099 90.5951 37.1223 90.9715 37.7712 91.5595C38.4201 92.1474 38.8747 92.9191 39.0746 93.772Z" fill="#FFB8B8"/>
<path d="M57.056 103.612C57.1091 103.351 57.2177 103.106 57.3744 102.891C57.5311 102.677 57.7322 102.498 57.964 102.369L66.0592 97.839C67.1348 97.0089 68.4954 96.6393 69.8428 96.8113C71.1902 96.9833 72.4146 97.6828 73.2475 98.7565C74.0804 99.8303 74.454 101.191 74.2864 102.54C74.1187 103.888 73.4235 105.116 72.3531 105.953L65.8988 112.66C65.7145 112.851 65.4913 113 65.2441 113.098C64.997 113.195 64.7319 113.238 64.4667 113.223C64.2015 113.209 63.9426 113.137 63.7076 113.013C63.4726 112.89 63.2669 112.717 63.1047 112.506L57.4033 105.112C57.241 104.902 57.1259 104.659 57.0659 104.4C57.006 104.141 57.0026 103.872 57.056 103.612Z" fill="#F9A826"/>
<path d="M84.9704 90.4277C83.4181 90.4161 81.8941 90.0112 80.5406 89.2506C79.1871 88.49 78.0482 87.3986 77.2304 86.0783C77.1415 85.9391 76.6561 85.2256 76.0939 84.3997C74.5143 82.0785 74.1439 81.5263 74.1125 81.4453C73.6851 80.3417 72.3283 79.9155 71.2653 79.7522C71.067 79.7217 70.8659 79.6948 70.6641 79.6675C69.1671 79.4669 67.6191 79.2594 66.7704 77.6128C66.1478 76.4045 65.1297 71.4841 65.9116 70.2818C66.8919 68.7737 68.7742 69.2633 70.5945 69.7373C71.7593 70.0398 72.9635 70.3533 73.9232 70.1534C78.0827 69.2874 82.7973 68.3058 86.9609 70.8433C90.2747 72.8622 92.2679 76.6754 92.1626 80.7948C92.0496 85.2183 90.1217 88.7101 87.0053 90.1355L86.3565 90.3245L85.9916 90.3695C85.6526 90.4082 85.3116 90.4276 84.9704 90.4277Z" fill="#2F2E41"/>
<path d="M315.356 74.7073C312.759 74.7075 310.242 75.602 308.226 77.2406C306.21 78.8791 304.819 81.1619 304.287 83.7056C303.754 86.2492 304.113 88.8987 305.302 91.209C306.491 93.5194 308.439 95.3498 310.817 96.393C310.77 95.5224 310.836 94.6494 311.014 93.7959C311.231 92.8764 312.468 87.6267 312.468 87.6267C312.221 87.0632 312.097 86.4534 312.105 85.8381C312.105 84.1607 313.074 82.9076 314.286 82.9076C315.316 82.9076 315.811 83.6807 315.811 84.6053C315.811 85.6411 315.149 87.1872 314.811 88.6221C314.744 88.8879 314.74 89.1659 314.799 89.4335C314.859 89.7012 314.981 89.9511 315.155 90.163C315.329 90.3749 315.55 90.543 315.801 90.6536C316.052 90.7642 316.325 90.8143 316.598 90.7998C318.739 90.7998 320.183 88.0461 320.183 84.7821C320.183 82.3013 318.512 80.447 315.478 80.447C312.049 80.447 309.908 83.0087 309.908 85.8684C309.875 86.6748 310.141 87.4651 310.656 88.0865C310.746 88.1611 310.81 88.2625 310.839 88.376C310.868 88.4895 310.861 88.6093 310.817 88.7181C310.762 88.9252 310.641 89.4255 310.585 89.6276C310.575 89.6887 310.551 89.7466 310.515 89.7965C310.478 89.8464 310.43 89.8869 310.375 89.9146C310.32 89.9422 310.259 89.9563 310.197 89.9556C310.135 89.9549 310.074 89.9394 310.02 89.9105C308.439 89.2638 307.702 87.5358 307.702 85.5855C307.702 82.372 310.413 78.5169 315.786 78.5169C320.103 78.5169 322.945 81.6445 322.945 84.9994C322.945 89.4406 320.476 92.7551 316.841 92.7551C315.619 92.7551 314.473 92.0932 314.079 91.3454C314.079 91.3454 313.423 93.9526 313.281 94.4578C313.02 95.3163 312.638 96.133 312.145 96.8831C313.701 97.3428 315.337 97.4625 316.943 97.2338C318.549 97.0052 320.087 96.4337 321.452 95.558C322.818 94.6823 323.98 93.523 324.858 92.1586C325.737 90.7942 326.312 89.2567 326.544 87.6503C326.777 86.044 326.662 84.4064 326.206 82.8485C325.751 81.2907 324.966 79.8491 323.905 78.6215C322.844 77.3939 321.531 76.409 320.056 75.7337C318.581 75.0583 316.978 74.7083 315.356 74.7073Z" fill="#3F3D56"/>
<path d="M251.667 37.5868L237.12 33.1083C236.936 33.0416 236.74 33.012 236.544 33.0212C236.349 33.0303 236.157 33.0781 235.979 33.1617C235.802 33.2453 235.643 33.3631 235.512 33.5084C235.38 33.6537 235.279 33.8235 235.213 34.0081L230.727 48.5976C230.617 48.9932 230.662 49.4162 230.853 49.7795C231.045 50.1428 231.368 50.4189 231.757 50.5508L246.3 55.0281C246.687 55.1309 247.1 55.0768 247.447 54.8777C247.795 54.6785 248.05 54.3502 248.158 53.9639L252.643 39.3745C252.702 39.193 252.724 39.0014 252.706 38.8114C252.689 38.6214 252.632 38.4371 252.541 38.2696C252.449 38.1022 252.325 37.9552 252.174 37.8378C252.024 37.7204 251.851 37.635 251.667 37.5868ZM236.563 48.8524L234.066 48.0836L236.455 40.3143L238.952 41.0831L236.563 48.8524ZM238.153 39.544L238.135 39.5385C237.777 39.4255 237.477 39.1749 237.303 38.8416C237.129 38.5083 237.094 38.1194 237.206 37.7603C237.317 37.4011 237.567 37.1009 237.899 36.9254C238.232 36.7499 238.62 36.7135 238.979 36.8241C239.339 36.9347 239.64 37.1833 239.816 37.5155C239.992 37.8477 240.03 38.2363 239.921 38.5962C239.811 38.9561 239.564 39.2579 239.233 39.4356C238.901 39.6132 238.513 39.6522 238.153 39.544ZM245.69 51.662L243.193 50.8933L244.499 46.6451C244.811 45.6274 244.662 44.8202 243.758 44.542C243.475 44.4573 243.173 44.4626 242.892 44.5571C242.612 44.6517 242.368 44.831 242.194 45.0702C242.067 45.2471 241.974 45.4462 241.919 45.6572L240.559 50.0824L238.062 49.3137L240.45 41.5443L242.948 42.3131L242.615 43.3943C242.963 43.0708 243.393 42.8471 243.857 42.7469C244.322 42.6466 244.805 42.6735 245.255 42.8246C246.895 43.3292 247.802 44.7922 247.085 47.1232L245.69 51.662Z" fill="#3F3D56"/>
<path fill-rule="evenodd" clip-rule="evenodd" d="M28.7152 99.1032C28.7148 96.9471 28.097 94.8362 26.9351 93.0205C25.7731 91.2048 24.1156 89.7603 22.1587 88.858C20.2019 87.9557 18.0276 87.6334 15.8934 87.9292C13.7591 88.225 11.7543 89.1266 10.1162 90.5271C8.47803 91.9277 7.27524 93.7687 6.65017 95.832C6.0251 97.8954 6.00393 100.095 6.58917 102.17C7.1744 104.245 8.34153 106.109 9.95239 107.541C11.5632 108.972 13.5504 109.912 15.6785 110.249V102.366H12.815V99.1032H15.6785V96.6169C15.6785 93.7897 17.3622 92.2268 19.9373 92.2268C20.783 92.2385 21.6267 92.3123 22.4616 92.4474V95.2242H21.0392C19.6393 95.2242 19.2014 96.0936 19.2014 96.9871V99.1036H22.3282L21.8289 102.366H19.2014V110.25C21.8538 109.83 24.2692 108.476 26.0132 106.433C27.7572 104.389 28.7153 101.79 28.7152 99.1031L28.7152 99.1032Z" fill="#3F3D56"/>
<path d="M331.807 232.589C331.807 232.698 331.763 232.802 331.686 232.879C331.61 232.956 331.505 233 331.396 233H0.410652C0.301741 233 0.197289 232.957 0.120277 232.88C0.0432647 232.803 0 232.698 0 232.589C0 232.48 0.0432647 232.376 0.120277 232.299C0.197289 232.222 0.301741 232.178 0.410652 232.178H331.396C331.505 232.179 331.61 232.222 331.686 232.299C331.763 232.376 331.807 232.48 331.807 232.589Z" fill="#3F3D56"/>
</g>
<defs>
<clipPath id="clip0">
<rect width="332" height="233" fill="white"/>
</clipPath>
</defs>
</svg>
