<svg width="58" height="63" viewBox="0 0 58 63" fill="none" xmlns="http://www.w3.org/2000/svg">
<g clip-path="url(#clip0)">
<path d="M54.8097 3.4655C52.6834 1.15531 50.1216 0 47.1262 0H10.8759C7.88053 0 5.31868 1.15531 3.19144 3.4655C1.0646 5.77613 0.000976562 8.55867 0.000976562 11.8124V51.1873C0.000976562 54.4407 1.0646 57.2236 3.19144 59.5342C5.31868 61.8448 7.88053 63.0001 10.8759 63.0001H47.1258C50.1212 63.0001 52.683 61.8448 54.8093 59.5342C56.9366 57.2236 58.0002 54.4409 58.0002 51.1873V11.8124C58.0001 8.55867 56.9364 5.7757 54.8097 3.4655ZM44.3694 24.2404C44.3947 24.4865 44.4075 24.855 44.4075 25.348C44.4075 27.645 44.0988 29.9488 43.4823 32.2587C42.8659 34.5697 41.9217 36.7845 40.6499 38.9035C39.3794 41.0223 37.8627 42.8959 36.1007 44.5227C34.3384 46.149 32.2241 47.4484 29.7566 48.4184C27.2902 49.3898 24.6465 49.8755 21.8273 49.8755C17.4474 49.8755 13.3945 48.5895 9.66866 46.0203C10.2728 46.1019 10.9025 46.1431 11.5566 46.1431C15.207 46.1431 18.4921 44.9126 21.4124 42.451C19.7008 42.4245 18.1713 41.8507 16.8246 40.7284C15.4776 39.6074 14.5401 38.1858 14.0114 36.463C14.6656 36.5722 15.1565 36.6263 15.4837 36.6263C16.0374 36.6263 16.6795 36.5172 17.4093 36.2989C15.5717 35.9155 14.0238 34.9253 12.7651 33.3256C11.5061 31.7258 10.8768 29.9008 10.8768 27.8502V27.7681C12.2107 28.4512 13.4694 28.8067 14.6527 28.8344C12.3618 27.1661 11.2165 24.7738 11.2165 21.6567C11.2165 20.1253 11.5812 18.6762 12.3113 17.309C14.2998 19.9615 16.717 22.0804 19.5612 23.6662C22.4057 25.2519 25.452 26.1411 28.6992 26.3323C28.5735 25.8128 28.5104 25.1563 28.5104 24.3635C28.5104 21.9843 29.2845 19.9543 30.8329 18.2725C32.3807 16.5908 34.25 15.7497 36.4398 15.7497C38.7564 15.7497 40.6826 16.6523 42.2179 18.4571C43.955 18.1017 45.6424 17.4041 47.2781 16.3654C46.649 18.4703 45.4777 20.0701 43.7667 21.164C45.4025 20.9174 46.925 20.4528 48.3345 19.7693C47.2774 21.5192 45.9553 23.0094 44.3694 24.2404Z" fill="#2F2E41"/>
</g>
<defs>
<clipPath id="clip0">
<rect width="58" height="63" fill="white"/>
</clipPath>
</defs>
</svg>
