<svg width="75" height="75" viewBox="0 0 75 75" fill="none" xmlns="http://www.w3.org/2000/svg">
<path d="M41.8945 66.1069C41.0859 66.1069 40.4297 66.7632 40.4297 67.5718C40.4297 68.3804 41.0859 69.0366 41.8945 69.0366C42.7031 69.0366 43.3594 68.3804 43.3594 67.5718C43.3594 66.7632 42.7031 66.1069 41.8945 66.1069Z" fill="black"/>
<path d="M21.3135 29.3394C20.5044 29.3394 19.8486 29.9952 19.8486 30.8042V58.7827C19.8486 59.5918 20.5044 60.2476 21.3135 60.2476C22.1225 60.2476 22.7783 59.5918 22.7783 58.7827V30.8042C22.7783 29.9952 22.1225 29.3394 21.3135 29.3394Z" fill="black"/>
<path d="M33.0322 29.3394C32.2232 29.3394 31.5674 29.9952 31.5674 30.8042V58.7827C31.5674 59.5918 32.2232 60.2476 33.0322 60.2476C33.8413 60.2476 34.4971 59.5918 34.4971 58.7827V30.8042C34.4971 29.9952 33.8413 29.3394 33.0322 29.3394Z" fill="black"/>
<path d="M62.4756 23.584H55.1514V19.1515C57.4475 17.4302 58.5388 14.5207 57.8917 11.648C57.2862 8.95415 55.0626 6.75571 52.3592 6.17754C50.9221 5.86919 49.4747 5.97832 48.1559 6.47974C46.8334 4.39482 44.511 3.07617 41.9678 3.07617C41.0092 3.07617 40.0724 3.26206 39.2063 3.61978C36.7544 1.30693 33.5219 0 30.1758 0C25.7496 0 21.6217 2.25483 19.1851 5.94419C11.5283 5.52056 5.2002 11.5951 5.2002 19.0854V36.6636C5.2002 39.0867 7.20439 41.0581 9.66797 41.0581C10.2083 41.0581 10.7262 40.9598 11.2061 40.7808V67.6758C11.2061 71.7144 14.4917 75 18.5303 75H47.8271C51.8657 75 55.1514 71.7144 55.1514 67.6758V63.2812H62.4756C66.5142 63.2812 69.7998 59.9956 69.7998 55.957V30.9082C69.7998 26.8696 66.5142 23.584 62.4756 23.584ZM52.2217 66.2109H47.7524C46.9434 66.2109 46.2876 66.8667 46.2876 67.6758C46.2876 68.4848 46.9434 69.126 47.7524 69.126H51.9697C51.365 70.8309 49.7367 72.0703 47.8271 72.0703H18.5303C16.6207 72.0703 14.9924 70.8456 14.3877 69.1406H36.0366C36.8457 69.1406 37.5015 68.4848 37.5015 67.6758C37.5015 66.8667 36.8457 66.2109 36.0366 66.2109H14.1357V36.6313V26.2948C17.4262 25.7981 20.2755 23.7258 21.7734 20.6544C22.079 20.6544 22.3482 20.7602 22.5511 20.9593C24.2043 22.585 26.3919 23.4801 28.7109 23.4801C31.1145 23.4801 33.3582 22.5287 35.0295 20.8002C35.1189 20.7076 35.2453 20.6544 35.376 20.6544C37.6563 20.6544 39.1484 21.1415 39.8111 22.1019C40.3573 22.8936 40.3569 23.9937 40.3564 24.8777V30.8043C40.3564 32.7139 41.5812 34.3422 43.2861 34.9469V58.7829C43.2861 59.5919 43.9419 60.2477 44.751 60.2477C45.56 60.2477 46.2158 59.5919 46.2158 58.7829V34.9468C47.9208 34.3421 49.1455 32.7139 49.1455 30.8042V20.4823C50.1716 20.6871 51.2188 20.6884 52.2217 20.4833V66.2109ZM48.3447 17.1309C47.8906 16.8999 47.3492 16.9214 46.9147 17.1879C46.4804 17.4542 46.2157 17.9271 46.2157 18.4365V30.8042C46.2157 31.6119 45.5585 32.269 44.7508 32.269C43.9431 32.269 43.286 31.6119 43.286 30.8042V24.8786C43.2864 23.7249 43.2872 21.9813 42.2224 20.4379C40.9803 18.6375 38.6769 17.7246 35.376 17.7246C34.4546 17.7246 33.5602 18.1039 32.9225 18.7645C31.8089 19.9162 30.3132 20.5503 28.7109 20.5503C27.1651 20.5503 25.707 19.9537 24.6042 18.8691C23.8523 18.131 22.847 17.7246 21.7734 17.7246C20.6632 17.7246 19.6314 18.3687 19.1446 19.3655C17.9168 21.8798 15.4313 23.4564 12.6583 23.4801C11.8542 23.487 11.2059 24.1408 11.2059 24.945V36.5941C11.1543 37.4568 10.4836 38.1284 9.66797 38.1284C8.83433 38.1284 8.12988 37.4575 8.12988 36.6636V19.0854C8.12988 13.4317 12.7562 8.85322 18.4434 8.85322C18.8854 8.85322 19.3296 8.88135 19.7736 8.93833C20.3662 9.01436 20.9452 8.72285 21.2375 8.2021C23.0621 4.95 26.487 2.92969 30.1758 2.92969C33.0659 2.92969 35.8523 4.19165 37.8204 6.39214C38.2973 6.92563 39.0901 7.03638 39.6952 6.65361C40.3651 6.22983 41.151 6.00586 41.9678 6.00586C43.8325 6.00586 45.4992 7.18667 46.1152 8.9439C46.265 9.37163 46.6046 9.70605 47.0347 9.84932C47.4646 9.99258 47.9369 9.92871 48.3133 9.67617C49.3118 9.00674 50.5302 8.78159 51.7453 9.04233C53.3273 9.38071 54.6794 10.7164 55.0333 12.2912C55.8671 15.992 52.0736 19.0277 48.3447 17.1309ZM55.1514 32.373H61.0107V54.4922H55.1514V32.373ZM66.8701 55.957C66.8701 58.3802 64.8987 60.3516 62.4756 60.3516H55.1514V57.4219H62.4756C63.2846 57.4219 63.9404 56.7661 63.9404 55.957V30.9082C63.9404 30.0992 63.2846 29.4434 62.4756 29.4434H55.1514V26.5137H62.4756C64.8987 26.5137 66.8701 28.4851 66.8701 30.9082V55.957Z" fill="black"/>
</svg>
