<svg width="77" height="77" viewBox="0 0 77 77" fill="none" xmlns="http://www.w3.org/2000/svg">
<g clip-path="url(#clip0)">
<path d="M42.6292 39.7015L70.5957 8.93455C71.2115 8.25688 71.364 7.31574 70.9934 6.47836C70.623 5.64099 69.824 5.12079 68.9084 5.12079H60.1608L63.2098 1.90499C63.6387 1.45261 63.6196 0.738405 63.1674 0.309491C62.7152 -0.119122 62.001 -0.100324 61.5719 0.352052L57.0506 5.12094H8.09182C7.17609 5.12094 6.37706 5.64114 6.00665 6.47852C5.63624 7.31604 5.78873 8.25719 6.40458 8.9347L34.3711 39.7015C34.6691 40.0293 35.0041 40.3163 35.3652 40.5612V67.6708C35.3652 69.1027 34.4565 70.3807 33.104 70.8508L23.7336 74.1089C23.7108 74.1169 23.6882 74.1254 23.6661 74.1348C23.0042 74.4137 22.6414 75.1003 22.7835 75.8042C22.9257 76.5082 23.5267 77 24.245 77H52.755C53.4732 77 54.0744 76.5084 54.2166 75.8042C54.3589 75.1003 53.9958 74.4136 53.334 74.1348C53.3119 74.1254 53.2892 74.1167 53.2665 74.1089L43.8961 70.8508C42.5438 70.3806 41.6349 69.1027 41.6349 67.6708V40.5614C41.9962 40.3163 42.3311 40.0293 42.6292 39.7015ZM58.0209 7.378H68.9084C68.9157 7.378 68.9199 7.37815 68.9211 7.3783C68.9274 7.38462 68.9343 7.40026 68.9347 7.40417C68.9347 7.40417 68.9326 7.40838 68.9254 7.41635L61.9796 15.0577H56.4281C56.9355 13.4321 56.6123 11.5491 55.5026 10.0342L58.0209 7.378ZM43.1548 72.9828L48.2169 74.7428H28.7832L33.8453 72.9828C36.1045 72.1973 37.6224 70.0626 37.6224 67.6708V41.4582C37.6721 41.4662 37.7224 41.4717 37.7725 41.4783C37.7989 41.4818 37.8254 41.4857 37.8519 41.4889C37.9117 41.4959 37.9717 41.5015 38.0317 41.5065C38.0498 41.508 38.0678 41.5095 38.0859 41.5108C38.2233 41.521 38.3614 41.5281 38.5002 41.5281C38.6392 41.5281 38.7774 41.521 38.9151 41.5107C38.9326 41.5093 38.9502 41.508 38.9676 41.5065C39.0282 41.5013 39.0887 41.4958 39.149 41.4887C39.1743 41.4858 39.1994 41.4819 39.2246 41.4786C39.2758 41.4719 39.327 41.4661 39.3779 41.458V67.6705C39.3777 70.0626 40.8956 72.1973 43.1548 72.9828ZM40.9589 38.1831C40.6861 38.4833 40.3699 38.7253 40.0232 38.9045C40.0148 38.9085 40.0061 38.9112 39.9978 38.9154C39.06 39.3887 37.94 39.3888 37.0022 38.9154C36.994 38.9113 36.9853 38.9086 36.977 38.9047C36.6304 38.7254 36.3141 38.4835 36.0412 38.1833L17.0722 17.3148H21.2572C21.8804 17.3148 22.3857 16.8095 22.3857 16.1862C22.3857 15.563 21.8804 15.0577 21.2572 15.0577H15.0205L8.07467 7.41635C8.06971 7.41094 8.06715 7.40733 8.0664 7.40673C8.0667 7.39785 8.07377 7.38236 8.07618 7.37936C8.07618 7.37936 8.08069 7.378 8.09167 7.378H54.9105L53.8655 8.48022C52.9436 7.87549 51.8893 7.53245 50.8103 7.49786C49.3163 7.45004 47.9512 7.99295 46.9706 9.02749C45.99 10.0619 45.52 11.4525 45.6475 12.9432C45.6642 13.1375 45.6916 13.3303 45.728 13.5212C44.0998 13.3016 42.4562 13.7892 41.311 14.9969C41.2922 15.0168 41.2751 15.0375 41.2566 15.0577H26.5087C25.8854 15.0577 25.3801 15.563 25.3801 16.1862C25.3801 16.8095 25.8854 17.3148 26.5087 17.3148H40.0928C39.9394 18.0181 39.9343 18.7575 40.0725 19.4863C39.8799 19.4602 39.6859 19.4431 39.491 19.4368C37.9958 19.3883 36.632 19.9319 35.6514 20.9664C33.9049 22.8085 33.8903 25.719 35.4728 27.8797L34.2252 29.1956C33.7964 29.648 33.8154 30.3622 34.2678 30.7911C34.486 30.9981 34.7652 31.1006 35.0441 31.1006C35.3429 31.1006 35.6414 30.9826 35.8632 30.7486L37.11 29.4335C38.0319 30.0383 39.086 30.3813 40.1653 30.4159C40.2264 30.4179 40.287 30.4189 40.3476 30.4189C41.7712 30.4189 43.0644 29.8785 44.0051 28.8864C44.9858 27.852 45.4558 26.4614 45.3282 24.9707C45.3115 24.7765 45.2842 24.5839 45.2479 24.393C45.4998 24.427 45.7522 24.4451 46.0029 24.4451C47.3728 24.4451 48.697 23.9378 49.6649 22.9168C50.8101 21.7089 51.2094 20.0416 50.9034 18.4275C51.096 18.4535 51.29 18.4707 51.4848 18.477C51.5458 18.4789 51.6064 18.48 51.667 18.48C52.9036 18.48 54.0413 18.0718 54.9353 17.3146H59.9283L40.9589 38.1831ZM42.9488 16.5499C43.4757 15.9942 44.2036 15.7205 44.9724 15.7205C45.8555 15.7205 46.7927 16.0816 47.5411 16.7911C48.9409 18.1186 49.1587 20.1699 48.0265 21.364C46.8943 22.5578 44.8348 22.4499 43.4348 21.1233C43.4347 21.1231 43.4344 21.1228 43.4342 21.1227C42.0344 19.7953 41.8166 17.744 42.9488 16.5499ZM42.3667 27.3336C41.8357 27.8937 41.0823 28.1858 40.2375 28.1602C39.3454 28.1316 38.4707 27.7523 37.7746 27.0923C36.3746 25.7649 36.1568 23.7136 37.2891 22.5195C37.7977 21.983 38.5127 21.6911 39.3119 21.6911C39.3474 21.6911 39.3828 21.6917 39.4183 21.6928C40.3102 21.7214 41.1847 22.1005 41.8807 22.7601C41.8808 22.7603 41.8811 22.7606 41.8813 22.7607C42.5773 23.4208 43.0026 24.2739 43.0787 25.1634C43.1506 26.0027 42.8978 26.7734 42.3667 27.3336ZM47.8965 12.7507C47.8246 11.9114 48.0774 11.1406 48.6084 10.5804C49.117 10.0441 49.8318 9.75207 50.6312 9.75207C50.6664 9.75207 50.702 9.75267 50.7376 9.75372C51.6298 9.78245 52.5044 10.1616 53.2004 10.8216C54.6003 12.1488 54.818 14.2003 53.6859 15.3944C53.1549 15.9545 52.3969 16.2465 51.5567 16.221C50.6647 16.1925 49.79 15.8133 49.094 15.1532C48.3979 14.4933 47.9727 13.64 47.8965 12.7507Z" fill="black"/>
</g>
<defs>
<clipPath id="clip0">
<rect width="77" height="77" fill="white"/>
</clipPath>
</defs>
</svg>
