<svg width="82" height="82" viewBox="0 0 82 82" fill="none" xmlns="http://www.w3.org/2000/svg">
<g clip-path="url(#clip0)">
<path d="M69.9878 71.192C70.6512 71.192 71.189 70.6542 71.189 69.9908C71.189 69.3275 70.6512 68.7897 69.9878 68.7897C69.3244 68.7897 68.7866 69.3275 68.7866 69.9908C68.7866 70.6542 69.3244 71.192 69.9878 71.192Z" fill="black"/>
<path d="M74.7927 75.9968C75.4561 75.9968 75.9939 75.459 75.9939 74.7957C75.9939 74.1323 75.4561 73.5945 74.7927 73.5945C74.1293 73.5945 73.5916 74.1323 73.5916 74.7957C73.5916 75.459 74.1293 75.9968 74.7927 75.9968Z" fill="black"/>
<path d="M12.0093 71.192C12.6727 71.192 13.2104 70.6542 13.2104 69.9908C13.2104 69.3275 12.6727 68.7897 12.0093 68.7897C11.3459 68.7897 10.8081 69.3275 10.8081 69.9908C10.8081 70.6542 11.3459 71.192 12.0093 71.192Z" fill="black"/>
<path d="M7.20435 75.9968C7.86773 75.9968 8.40552 75.459 8.40552 74.7957C8.40552 74.1323 7.86773 73.5945 7.20435 73.5945C6.54096 73.5945 6.00317 74.1323 6.00317 74.7957C6.00317 75.459 6.54096 75.9968 7.20435 75.9968Z" fill="black"/>
<path d="M6.85279 15.3495C6.38368 14.8804 5.62307 14.8804 5.15396 15.3495C4.68485 15.8186 4.68485 16.5792 5.15396 17.0483L15.3466 27.241C15.8158 27.7101 16.5764 27.7101 17.0455 27.241C17.5146 26.7719 17.5146 26.0113 17.0455 25.5422L6.85279 15.3495Z" fill="black"/>
<path d="M10.2501 11.9521C9.78102 11.4829 9.02041 11.4829 8.5513 11.9521C8.08218 12.4212 8.08218 13.1818 8.5513 13.6509L18.744 23.8436C19.2131 24.3127 19.9737 24.3127 20.4428 23.8436C20.9119 23.3745 20.9119 22.6139 20.4428 22.1447L10.2501 11.9521Z" fill="black"/>
<path d="M13.6477 8.55447C13.1786 8.08536 12.418 8.08536 11.9489 8.55447C11.4798 9.02358 11.4798 9.78419 11.9489 10.2533L22.1416 20.446C22.6107 20.9151 23.3713 20.9151 23.8404 20.446C24.3095 19.9769 24.3095 19.2163 23.8404 18.7472L13.6477 8.55447Z" fill="black"/>
<path d="M17.0451 5.15689C16.5759 4.68778 15.8153 4.68778 15.3462 5.15689C14.8771 5.626 14.8771 6.38661 15.3462 6.85572L25.5389 17.0484C26.008 17.5175 26.7686 17.5175 27.2377 17.0484C27.7068 16.5793 27.7068 15.8187 27.2377 15.3496L17.0451 5.15689Z" fill="black"/>
<path d="M57.9859 47.7965C57.8022 47.6128 57.5637 47.4934 57.3063 47.4566L51.757 46.6638L48.6425 43.5495C48.1734 43.0802 47.4128 43.0803 46.9439 43.5495C46.4747 44.0186 46.4747 44.7792 46.9439 45.2481L49.492 47.7963L47.7932 49.4951L42.6969 44.3988L55.7516 31.344C59.8513 33.3079 64.7915 32.4967 68.0575 29.2307L81.6477 15.6405C82.1168 15.1714 82.1168 14.4108 81.6477 13.9417C79.306 11.5999 75.4955 11.5999 73.1538 13.9417L63.8106 23.2848L58.7143 18.1885L68.0575 8.84532C70.3992 6.5036 70.3992 2.69319 68.0575 0.351469C67.5884 -0.117645 66.8278 -0.117645 66.3587 0.351469L52.7685 13.9417C49.5024 17.2077 48.6912 22.1479 50.6551 26.2475L40.998 35.9046L32.8307 27.7373C35.6819 22.6355 34.8256 16.142 30.6348 11.9513L20.4421 1.75865C18.1004 -0.583074 14.29 -0.583074 11.9482 1.75865L1.75556 11.9513C-0.586163 14.2931 -0.586163 18.1035 1.75556 20.4452L11.9482 30.6379C16.139 34.8287 22.6325 35.685 27.7342 32.8338L35.9015 41.0011L30.239 46.6636L24.6897 47.4564C24.4324 47.4933 24.194 47.6124 24.0102 47.7961L2.10775 69.6992C-0.70228 72.5092 -0.70228 77.0817 2.10775 79.8919C4.91779 82.7019 9.49024 82.7019 12.3004 79.8919L34.2032 57.9891C34.3869 57.8054 34.5062 57.567 34.5429 57.3096L35.3357 51.7603L40.9982 46.0978L46.6607 51.7603L47.4535 57.3096C47.4902 57.5668 47.6095 57.8053 47.7934 57.9891L69.6961 79.8919C71.101 81.2968 72.9467 81.9994 74.7923 81.9994C76.638 81.9994 78.4835 81.2968 79.8886 79.8919C82.6987 77.0817 82.6987 72.5094 79.8886 69.6992L57.9859 47.7965ZM28.766 30.4681C28.3621 30.0642 27.7294 30.0006 27.2533 30.3161C22.9909 33.1399 17.2688 32.5609 13.6474 28.9395L3.45471 18.7468C2.04962 17.3417 2.04962 15.0556 3.45471 13.6505L13.6474 3.4578C15.0525 2.05271 17.3386 2.05271 18.7437 3.4578L28.9364 13.6505C32.5578 17.2719 33.1368 22.994 30.313 27.2564C29.9975 27.7325 30.0611 28.3652 30.465 28.7691L39.2997 37.6038L37.6008 39.3026L28.766 30.4681ZM10.6016 78.193C8.72819 80.0665 5.68 80.0665 3.80659 78.193C1.93318 76.3196 1.93318 73.2714 3.80659 71.398L24.8598 50.3448L31.6548 57.1398L10.6016 78.193ZM32.5043 54.5916L27.408 49.4953L30.3809 49.0705L32.9291 51.6187L32.5043 54.5916ZM34.203 49.4953L32.5042 47.7965L52.9826 27.318C53.3702 26.9304 53.4463 26.3297 53.1676 25.8578C51.2181 22.5569 51.7526 18.3556 54.4673 15.6408L67.0626 3.04555C67.7008 4.38482 67.4662 6.03945 66.3587 7.14697L56.166 17.3396C55.6969 17.8088 55.6969 18.5694 56.166 19.0385L62.961 25.8335C63.4301 26.3026 64.1907 26.3026 64.6598 25.8335L74.8525 15.6408C75.9599 14.5335 77.6146 14.2988 78.9539 14.9369L66.3587 27.5322C63.6439 30.2469 59.4424 30.7814 56.1416 28.8319C55.6696 28.5532 55.069 28.6293 54.6814 29.0169L34.203 49.4953ZM49.0673 51.6187L51.6155 49.0705L54.5882 49.4953L49.4919 54.5916L49.0673 51.6187ZM78.1898 78.193C76.3164 80.0665 73.268 80.0665 71.3946 78.193L50.3414 57.1396L57.1364 50.3446L78.1898 71.3979C80.0632 73.2713 80.0632 76.3196 78.1898 78.193Z" fill="black"/>
</g>
<defs>
<clipPath id="clip0">
<rect width="82" height="82" fill="white"/>
</clipPath>
</defs>
</svg>
