<svg width="89" height="89" viewBox="0 0 89 89" fill="none" xmlns="http://www.w3.org/2000/svg">
<g clip-path="url(#clip0)">
<path d="M44.5 88.9992C69.4525 88.9992 89 81.1803 89 71.1995C89 66.519 84.8274 62.2161 77.2048 58.9724C79.0409 56.0418 80.4722 52.8762 81.4602 49.5619V49.5355C83.5923 42.3779 83.5923 34.754 81.4602 27.5964V27.57C79.5651 21.232 76.0722 15.4875 71.3171 10.8886C71.2743 10.841 71.2281 10.7969 71.1792 10.7562C66.5612 6.31608 60.9098 3.09686 54.7348 1.38914L54.6873 1.37556C48.0193 -0.459822 40.9793 -0.459822 34.3107 1.37556L34.2652 1.38914C28.0909 3.09754 22.4394 6.31676 17.8208 10.7562C17.7719 10.7969 17.7257 10.841 17.6829 10.8886C12.9278 15.4875 9.43493 21.232 7.53979 27.57V27.5964C5.40768 34.754 5.40768 42.3779 7.53979 49.5355V49.5619C8.52776 52.8762 9.95913 56.0418 11.7952 58.9724C4.17255 62.2161 0 66.519 0 71.1995C0 81.1803 19.5475 88.9992 44.5 88.9992ZM10.5614 49.3127L15.707 40.0489H28.793L32.5011 46.7243L35.3862 51.9161L32.5031 57.1078L28.7944 63.7826H19.3975C15.3315 59.7397 12.3004 54.7761 10.5614 49.3127ZM8.89986 38.5659C8.90258 36.3761 9.10696 34.191 9.51098 32.0392L13.1362 38.5659L9.51098 45.0927C9.10696 42.9402 8.90258 40.7558 8.89986 38.5659ZM37.957 26.6995H51.043L54.7511 33.3742L57.6362 38.5659L54.7531 43.7577L51.0444 50.4324H37.957L34.2489 43.7577L31.3638 38.5659L34.2475 33.3742L37.957 26.6995ZM28.793 66.7492L31.5491 71.7169C28.408 70.4845 25.4577 68.812 22.7871 66.7492H28.793ZM35.6864 73.0606L31.3638 65.2655L32.5622 63.1076L37.957 53.3991H51.043L56.4378 63.109L57.6362 65.2655L53.3143 73.0593C47.5304 74.5328 41.4696 74.5328 35.6864 73.0593V73.0606ZM60.207 66.7492H66.2129C63.5423 68.812 60.5927 70.4845 57.4509 71.7169L60.207 66.7492ZM69.6025 63.7826H60.207L56.4989 57.1078L53.6138 51.9161L56.4975 46.7243L60.2056 40.0489H73.2916L78.4372 49.3127C76.6989 54.7761 73.6678 59.7397 69.6025 63.7826ZM80.1001 38.5659C80.0974 40.7558 79.893 42.9402 79.489 45.0927L75.8638 38.5659L79.489 32.0392C79.893 34.191 80.0974 36.3761 80.1001 38.5659ZM78.4386 27.8192L73.293 37.0823H60.207L56.4989 30.4076L53.6138 25.2158L56.4975 20.0241L60.2056 13.3493H69.6012C73.6678 17.3915 76.6996 22.3551 78.4386 27.8192ZM60.207 10.3827L57.4509 5.41503C60.5927 6.64744 63.5423 8.31986 66.2129 10.3827H60.207ZM53.3143 4.07125L57.6362 11.8657L56.4378 14.0243L51.043 23.7328H37.957L32.5622 14.0229L31.3638 11.8657L35.6864 4.07261C41.4696 2.59915 47.5304 2.59915 53.3143 4.07261V4.07125ZM28.793 10.3827H22.7871C25.4577 8.31986 28.408 6.64744 31.5491 5.41503L28.793 10.3827ZM19.3975 13.3493H28.793L32.5011 20.0241L35.3862 25.2158L32.5031 30.4076L28.7944 37.0823H15.707L10.5614 27.8192C12.3004 22.3551 15.3315 17.3915 19.3975 13.3493ZM13.4982 61.4773C14.7611 63.1776 16.1606 64.7712 17.6829 66.2433C17.7257 66.2909 17.7719 66.335 17.8208 66.3757C22.4381 70.8165 28.0902 74.0357 34.2652 75.7428L34.2944 75.7543L34.3453 75.7665C40.9922 77.5883 48.0078 77.5883 54.6547 75.7665L54.7273 75.7455C60.905 74.0384 66.5599 70.8179 71.1792 66.3757C71.2281 66.335 71.2743 66.2909 71.3171 66.2433C72.8394 64.7712 74.2389 63.1776 75.5018 61.4773C82.2078 64.2273 86.0334 67.7324 86.0334 71.1995C86.0334 78.3624 69.3445 86.0326 44.5 86.0326C19.6555 86.0326 2.96662 78.3624 2.96662 71.1995C2.96662 67.7324 6.7922 64.2273 13.4982 61.4773Z" fill="black"/>
</g>
<defs>
<clipPath id="clip0">
<rect width="89" height="89" fill="white"/>
</clipPath>
</defs>
</svg>
