<svg width="82" height="82" viewBox="0 0 82 82" fill="none" xmlns="http://www.w3.org/2000/svg">
<g clip-path="url(#clip0)">
<path d="M78.6228 51.8175C78.9591 51.4354 79.5633 50.736 79.2889 49.8649C79.0118 48.985 78.0821 48.7589 77.6407 48.6516L72.6347 47.4092C72.629 47.4078 72.6237 47.4065 72.6184 47.4052C72.6061 47.3846 72.5936 47.3631 72.5817 47.3432L69.9699 42.9798C69.7506 42.6124 69.2375 41.7519 68.271 41.7517C67.3052 41.7517 66.7919 42.6108 66.5725 42.9788L64.0432 47.2034C64.0111 47.2566 63.9821 47.3061 63.9551 47.3521C63.945 47.369 63.9344 47.3873 63.9238 47.4052C63.9179 47.4067 63.9117 47.4083 63.9051 47.4099L58.9052 48.6506C58.4592 48.7597 57.5309 48.9864 57.2543 49.8663C56.9804 50.7376 57.5834 51.436 57.9189 51.8175L61.1328 55.6856C61.1796 55.742 61.25 55.8272 61.2095 56.3112L60.8256 61.0962C60.7758 61.5598 60.6844 62.4969 61.418 63.0502C62.1612 63.6106 63.0681 63.2426 63.5137 63.0615L67.9225 61.2257C68.0821 61.1585 68.4598 61.1585 68.6246 61.228L73.0398 63.0663C73.321 63.18 73.7473 63.3521 74.2033 63.3521C74.5092 63.3521 74.8284 63.2746 75.1261 63.0498C75.8576 62.4972 75.7661 61.5602 75.7163 61.0963L75.3327 56.3158C75.2952 55.823 75.3638 55.7404 75.4085 55.6866L78.6228 51.8175ZM73.5598 54.1523C72.9092 54.9369 72.8855 55.8184 72.9377 56.5034L73.263 60.5573L69.5532 59.0125C68.7984 58.694 67.7437 58.694 66.994 59.0103L63.2791 60.5571L63.604 56.5077C63.661 55.829 63.6418 54.9476 62.9815 54.1513L60.2007 50.8044L64.4794 49.7425C65.4078 49.5158 65.7181 49.0946 66.0273 48.5676C66.0502 48.5286 66.0747 48.4868 66.1031 48.4397L68.2711 44.8187L70.4403 48.4418L70.5114 48.5617C70.8229 49.0912 71.1349 49.5143 72.0585 49.7417L76.3416 50.8045L73.5598 54.1523Z" fill="black"/>
<path d="M35.6729 40.0697L30.2569 45.4895C29.788 45.9588 29.7883 46.7194 30.2575 47.1881C30.492 47.4224 30.7992 47.5397 31.1065 47.5397C31.414 47.5397 31.7217 47.4223 31.9562 47.1875L37.3722 41.7676C37.8411 41.2984 37.8408 40.5378 37.3715 40.069C36.9023 39.6003 36.1418 39.6003 35.6729 40.0697Z" fill="black"/>
<path d="M39.0515 50.4473C39.2859 50.6816 39.5931 50.7988 39.9005 50.7988C40.208 50.7988 40.5156 50.6814 40.7501 50.4467L50.4166 40.7734C50.9937 41.2354 51.7052 41.4877 52.4573 41.4877C53.3331 41.4877 54.155 41.1477 54.7698 40.5323L55.7365 39.5696C56.8405 38.4612 57.2668 36.929 57.0186 35.493C57.6575 35.5673 58.2973 35.6064 58.935 35.6064C62.5694 35.6063 66.1307 34.4118 69.0223 32.1808C69.0407 32.1671 69.0591 32.1535 69.0769 32.1386C69.6051 31.7274 70.1107 31.2819 70.5901 30.8024L73.2869 28.1036C79.7055 21.6807 79.7055 11.2297 73.2869 4.80677C70.189 1.70695 66.0554 0 61.6461 0C61.6453 0 61.6437 0 61.6429 0C57.235 0.000800781 53.1029 1.70807 50.0092 4.80629L47.3072 7.50572C46.8336 7.97963 46.3948 8.48027 45.9882 9.0019C45.9616 9.03249 45.9367 9.06404 45.9137 9.09655C43.3047 12.4944 42.1236 16.8111 42.6204 21.0857C42.3601 21.0412 42.0944 21.017 41.8247 21.017C40.5851 21.017 39.4219 21.4978 38.5492 22.3711L37.586 23.3349C36.3975 24.5244 36.3176 26.4082 37.344 27.6925L11.8577 53.1962C8.52905 56.532 8.28032 61.7969 11.1061 65.4206C7.89899 69.4269 8.14867 75.3087 11.8589 79.0213C13.7801 80.9414 16.3429 81.9987 19.0755 81.9987C21.8084 81.9987 24.3703 80.941 26.2893 79.0208L40.5574 64.7427C40.5576 64.7427 40.5576 64.7425 40.5576 64.7425C40.5577 64.7424 40.5579 64.7422 40.5579 64.7422C42.023 63.274 43.9819 62.4656 46.0735 62.4656C48.1652 62.4656 50.124 63.2741 51.5896 64.7427C54.6339 67.789 54.634 72.7423 51.5891 75.7855L47.4318 79.95C46.9632 80.4196 46.9638 81.1802 47.4332 81.6488C47.6677 81.8828 47.9747 81.9998 48.2819 81.9998C48.5896 81.9998 48.8974 81.8823 49.132 81.6473L53.2882 77.4836C57.2689 73.5051 57.2692 67.0276 53.2894 63.045C51.3702 61.122 48.8075 60.0631 46.0734 60.0631C43.3396 60.0631 40.7775 61.1217 38.8585 63.0441C38.8583 63.0442 38.8582 63.0444 38.858 63.0445L38.8575 63.045L24.59 77.3225C23.1247 78.7887 21.1663 79.5962 19.0755 79.5962C16.9843 79.5962 15.0247 78.7886 13.5576 77.3225C10.7808 74.5438 10.539 70.1758 12.8291 67.1183C14.4689 68.3574 16.43 68.979 18.3931 68.979C20.76 68.979 23.1282 68.0778 24.9318 66.2755L26.5303 64.6759L26.5305 64.6757L26.5306 64.6756L36.9871 54.2119C37.456 53.7427 37.4557 52.9821 36.9864 52.5133C36.5172 52.0444 35.7566 52.0445 35.2878 52.514L25.6815 62.1269L16.0053 52.444L39.0268 29.4064L48.703 39.0893L39.0507 48.7482C38.5819 49.2179 38.5822 49.9785 39.0515 50.4473ZM47.059 11.6542L51.4597 16.0582C51.6944 16.293 52.0019 16.4104 52.3094 16.4104C52.6165 16.4104 52.9239 16.2933 53.1583 16.0589C53.6276 15.5899 53.6279 14.8293 53.159 14.3603L48.5205 9.71828C48.678 9.54387 48.8386 9.3717 49.0057 9.2045L51.708 6.50475C51.8741 6.3385 52.0437 6.17691 52.2166 6.02011L56.8583 10.6613C57.0929 10.8958 57.4002 11.013 57.7076 11.013C58.0149 11.013 58.3224 10.8958 58.5571 10.6611C59.0262 10.192 59.026 9.43144 58.5571 8.96234L54.1496 4.55532C56.3663 3.15604 58.9427 2.40282 61.6433 2.40234H61.6461C65.413 2.40234 68.9438 3.85945 71.5877 6.50507C76.315 11.2358 76.9625 18.5226 73.5379 23.9581L69.1343 19.5514C68.6653 19.0821 67.9047 19.0818 67.4356 19.5508C66.9664 20.0197 66.9661 20.7803 67.435 21.2494L72.075 25.8926C71.9176 26.0667 71.7554 26.2379 71.5877 26.4056L68.8908 29.1044C68.7239 29.2714 68.5521 29.4321 68.378 29.5893L63.7407 24.9487C63.2717 24.4794 62.5112 24.4791 62.0421 24.948C61.5728 25.417 61.5725 26.1775 62.0414 26.6466L66.4436 31.0519C63.2327 33.0644 59.2755 33.7219 55.5024 32.7801L45.333 22.6037C44.3916 18.8278 45.0484 14.8676 47.059 11.6542ZM39.2853 25.0331L40.2485 24.0692C40.6673 23.6501 41.227 23.4193 41.8247 23.4193C42.4223 23.4193 42.9822 23.6501 43.4008 24.0691L54.0358 34.7116C54.9053 35.5818 54.9047 37.0006 54.0379 37.871L53.0727 38.8323C52.9095 38.9955 52.6912 39.0853 52.4575 39.0853C52.2238 39.0853 52.0054 38.9955 51.8422 38.8323L51.2509 38.2405C51.2507 38.2403 51.2506 38.2402 51.2504 38.2399C51.2502 38.2397 51.2501 38.2395 51.2498 38.2394L39.8761 26.8582L39.8759 26.858L39.8758 26.8579L39.2853 26.2669C38.9454 25.9266 38.9454 25.3732 39.2853 25.0331ZM23.9835 63.8264L23.2333 64.5772C20.5638 67.245 16.2233 67.2453 13.5578 64.5779C10.8917 61.9098 10.8918 57.5653 13.5578 54.8939L14.3075 54.1437L23.9835 63.8264Z" fill="black"/>
<path d="M14.7559 26.4971C14.7559 25.2474 14.2663 24.1253 13.3718 23.3112V10.6946L26.2003 6.47241V14.9432C25.4766 14.8356 24.7014 14.8598 23.9116 15.0233C20.6508 15.6936 18.0966 18.4668 18.0966 21.3372C18.0966 22.6735 18.6538 23.8631 19.6656 24.6868C20.5566 25.4122 21.7288 25.7927 23.0055 25.7927C23.4591 25.7927 23.9261 25.7447 24.3979 25.6468C27.6578 24.9703 30.2111 22.1951 30.2111 19.3288C30.2111 17.9953 29.654 16.8075 28.6424 15.9843C28.6294 15.9737 28.6157 15.9644 28.6027 15.954V4.81255C28.6027 4.42721 28.4179 4.06526 28.1057 3.83944C27.7934 3.61362 27.3919 3.551 27.0259 3.6716L11.7951 8.68449C11.3024 8.84673 10.9695 9.30669 10.9695 9.82544V22.1491C10.1828 21.9994 9.32868 22.0077 8.45647 22.1871C8.45599 22.1873 8.45551 22.1873 8.45503 22.1874C5.19505 22.8626 2.64136 25.638 2.64136 28.5056C2.64136 29.8419 3.19854 31.0316 4.21041 31.8554C5.10136 32.5806 6.27354 32.9611 7.55015 32.9611C8.00387 32.9611 8.47072 32.9131 8.94271 32.8152C12.2025 32.1386 14.7559 29.3634 14.7559 26.4971ZM23.9103 23.2946C22.8215 23.5202 21.8271 23.3487 21.1823 22.8239C20.7352 22.46 20.4989 21.9459 20.4989 21.3373C20.4989 19.6244 22.2834 17.8105 24.3957 17.3766C24.3963 17.3765 24.3971 17.3763 24.3979 17.3762C24.7119 17.311 25.0177 17.279 25.3099 17.279C26.0304 17.279 26.6664 17.4739 27.1259 17.8478C27.5727 18.2114 27.8088 18.7236 27.8088 19.3291C27.8088 21.0401 26.0234 22.8561 23.9103 23.2946ZM5.72709 29.9922C5.27993 29.6281 5.0437 29.1142 5.0437 28.5054C5.0437 26.7937 6.82896 24.9777 8.94206 24.5398C9.93599 24.3354 10.8506 24.4632 11.494 24.8875C11.4996 24.8913 11.5055 24.8949 11.5113 24.8987C11.5664 24.9359 11.6204 24.9743 11.6713 25.0159C12.1176 25.3798 12.3536 25.892 12.3536 26.4972C12.3536 28.2083 10.5681 30.0245 8.45503 30.4629C7.36613 30.6885 6.37172 30.5167 5.72709 29.9922Z" fill="black"/>
</g>
<defs>
<clipPath id="clip0">
<rect width="82" height="82" fill="white"/>
</clipPath>
</defs>
</svg>
