<svg width="91" height="91" viewBox="0 0 91 91" fill="none" xmlns="http://www.w3.org/2000/svg">
<path d="M36.8032 29.2521C36.0556 28.3541 35.6022 27.2479 35.5047 26.0836L34.4063 12.8987L34.9102 12.6467C35.1463 12.5286 35.3449 12.3471 35.4837 12.1225C35.6226 11.8979 35.6961 11.639 35.6961 11.375V7.10938C35.6948 5.97845 35.245 4.89421 34.4453 4.09453C33.6456 3.29484 32.5614 2.84502 31.4305 2.84375H20.0555C18.9245 2.84502 17.8403 3.29484 17.0406 4.09453C16.2409 4.89421 15.7911 5.97845 15.7898 7.10938V11.375C15.7899 11.639 15.8634 11.8979 16.0022 12.1225C16.141 12.3471 16.3396 12.5286 16.5758 12.6467L19.4195 14.0686C19.617 14.1673 19.8347 14.2187 20.0555 14.2187C20.2762 14.2187 20.494 14.1673 20.6914 14.0686L22.8992 12.9647L25.107 14.0686C25.3045 14.1673 25.5222 14.2187 25.743 14.2187C25.9637 14.2187 26.1815 14.1673 26.3789 14.0686L28.5867 12.9647L30.7945 14.0686C31.0615 14.2047 31.3656 14.25 31.6606 14.1976L32.6705 26.3191C32.8165 28.0658 33.4965 29.7252 34.6181 31.0721C35.7619 32.4451 36.7416 33.9468 37.5374 35.5469H13.948C14.7441 33.9468 15.7239 32.445 16.8678 31.0719C17.9926 29.7272 18.6729 28.0669 18.8152 26.3196L19.6286 16.5579L16.7946 16.3219L15.9813 26.0839C15.8865 27.2483 15.4332 28.3548 14.6838 29.251C12.8877 31.4037 11.4541 33.8346 10.4395 36.4482C10.3652 36.6369 10.2941 36.8257 10.2262 37.0146C9.20185 39.8403 8.67857 42.8232 8.67993 45.8288V52.0477C8.67956 53.7625 8.8514 55.473 9.19288 57.1535C9.32156 57.7981 9.48187 58.4586 9.66956 59.1178C10.254 61.1628 10.5505 63.2794 10.5502 65.4062C10.5506 67.5337 10.2542 69.6508 9.66956 71.6963C9.01303 73.995 8.68013 76.3741 8.68047 78.7648V82.4688C8.68216 83.9766 9.28192 85.4223 10.3482 86.4885C11.4144 87.5548 12.8601 88.1546 14.368 88.1562H37.118C38.6259 88.1545 40.0715 87.5547 41.1377 86.4885C42.204 85.4223 42.8037 83.9766 42.8055 82.4688V78.7648C42.8057 76.3736 42.4726 73.9941 41.8158 71.6948C40.6421 67.5842 40.6421 63.2271 41.8158 59.1164C42.003 58.4588 42.1633 57.799 42.2908 57.1613C42.396 56.65 42.4863 56.1296 42.5574 55.617C42.723 54.4344 42.8061 53.2417 42.8062 52.0476V45.8288C42.8065 39.7712 40.6825 33.9052 36.8039 29.2521H36.8032ZM29.2227 10.1033C29.0252 10.0046 28.8075 9.95317 28.5867 9.95317C28.366 9.95317 28.1482 10.0046 27.9508 10.1033L25.743 11.2072L23.5352 10.1033C23.3377 10.0046 23.12 9.95317 22.8992 9.95317C22.6785 9.95317 22.4607 10.0046 22.2633 10.1033L20.0555 11.2072L18.6336 10.4963V7.10938C18.634 6.7324 18.784 6.37099 19.0505 6.10442C19.3171 5.83786 19.6785 5.68792 20.0555 5.6875H31.4305C31.8074 5.68792 32.1689 5.83786 32.4354 6.10442C32.702 6.37099 32.8519 6.7324 32.8523 7.10938V10.4963L31.4305 11.2072L29.2227 10.1033ZM11.5242 45.8288C11.5231 43.2984 11.9398 40.7852 12.7575 38.3906H38.7282C39.5467 40.785 39.9636 43.2984 39.9619 45.8288V52.0477C39.9619 53.1103 39.8881 54.1717 39.7408 55.224C39.7301 55.3001 39.7166 55.3769 39.7052 55.4531H11.7794C11.6096 54.3259 11.5243 53.1876 11.5242 52.0477V45.8288ZM39.9617 82.4688C39.9608 83.2227 39.6609 83.9455 39.1278 84.4786C38.5947 85.0117 37.8719 85.3116 37.118 85.3125H14.368C13.614 85.3116 12.8912 85.0117 12.3581 84.4786C11.825 83.9455 11.5251 83.2227 11.5242 82.4688V78.7648C11.5241 76.6379 11.8203 74.5215 12.4042 72.4763C13.0612 70.1771 13.3944 67.7975 13.394 65.4062C13.3944 63.0155 13.0614 60.6364 12.4047 58.3376C12.4008 58.3241 12.3974 58.3104 12.3935 58.2969H39.0922C39.0887 58.31 39.0853 58.3232 39.0816 58.3363C37.7621 62.9572 37.7621 67.8551 39.0816 72.476C39.6657 74.5212 39.9619 76.6378 39.9617 78.7648V82.4688Z" fill="black"/>
<path d="M17.9833 41.4994L15.1895 40.9694C15.0003 41.9676 14.8742 42.9767 14.812 43.9908L17.6506 44.164C17.7053 43.2696 17.8164 42.3797 17.9833 41.4994Z" fill="black"/>
<path d="M14.7671 46.9219H17.6108V52.6094H14.7671V46.9219Z" fill="black"/>
<path d="M24.3212 23.3109V19.9062H21.4774V23.3109C21.4803 26.3734 20.5737 29.3678 18.8726 31.9143L21.2386 33.4919C23.2518 30.4785 24.3247 26.935 24.3212 23.3109Z" fill="black"/>
<path d="M27.1648 19.9062V23.3109C27.1614 26.935 28.2343 30.4784 30.2474 33.4919L32.6134 31.9143C30.9122 29.3678 30.0056 26.3734 30.0086 23.3109V19.9062H27.1648Z" fill="black"/>
<path d="M24.321 62.5625H27.1648V76.7812H24.321V62.5625Z" fill="black"/>
<path d="M17.2117 62.5625H20.0554V76.7812H17.2117V62.5625Z" fill="black"/>
<path d="M31.4304 62.5625H34.2742V76.7812H31.4304V62.5625Z" fill="black"/>
<path d="M82.2469 34.7826L81.8276 29.7421C81.7981 29.3865 81.6361 29.055 81.3736 28.8133C81.1111 28.5716 80.7673 28.4375 80.4105 28.4375H49.1292C48.7725 28.4375 48.4288 28.5715 48.1663 28.8131C47.9038 29.0546 47.7417 29.386 47.7122 29.7415L47.2929 34.7826C46.6142 42.905 47.4978 51.0822 49.8958 58.8722C50.5896 61.1274 51.1522 63.4209 51.5807 65.7411C52.0086 68.062 52.302 70.4056 52.4595 72.7604L53.3981 86.8298C53.4223 87.1896 53.5823 87.5267 53.8457 87.773C54.109 88.0193 54.4562 88.1563 54.8167 88.1562H74.723C75.0837 88.1562 75.431 88.0191 75.6944 87.7727C75.9578 87.5262 76.1177 87.1889 76.1417 86.8289L77.0803 72.7595C77.395 68.0466 78.2552 63.386 79.6438 58.8713C81.4008 53.1619 82.348 47.2342 82.4576 41.2616C82.465 40.8706 82.4687 40.4795 82.4687 40.0885C82.4687 38.3345 82.394 36.5491 82.2469 34.7826ZM50.1269 35.0183L50.4377 31.2812H79.102L79.4129 35.0179C79.546 36.6147 79.6146 38.2259 79.6219 39.8125H49.9173C49.9255 38.2191 49.9939 36.6122 50.1269 35.0178V35.0183ZM76.9257 58.0349C75.4724 62.76 74.5721 67.6378 74.2428 72.5704L73.3928 85.3125H56.1462L55.2963 72.5709C55.1315 70.1066 54.8244 67.6538 54.3765 65.225C53.928 62.7964 53.3393 60.3958 52.6132 58.0353C51.078 53.0431 50.19 47.8745 49.9712 42.6562H79.5686C79.3494 47.8745 78.4612 53.0429 76.9257 58.0349Z" fill="black"/>
<path d="M66.1919 56.875V48.3438C66.1919 47.9666 66.0421 47.605 65.7754 47.3383C65.5088 47.0717 65.1471 46.9219 64.77 46.9219H56.2388C55.8617 46.9219 55.5 47.0717 55.2334 47.3383C54.9667 47.605 54.8169 47.9666 54.8169 48.3438V56.875C54.8169 57.2521 54.9667 57.6138 55.2334 57.8804C55.5 58.1471 55.8617 58.2969 56.2388 58.2969H64.77C65.1471 58.2969 65.5088 58.1471 65.7754 57.8804C66.0421 57.6138 66.1919 57.2521 66.1919 56.875ZM63.3481 55.4531H57.6606V49.7656H63.3481V55.4531Z" fill="black"/>
<path d="M65.7753 61.557C65.6432 61.4249 65.4865 61.3202 65.314 61.2487C65.1415 61.1773 64.9566 61.1405 64.7698 61.1405C64.5831 61.1405 64.3982 61.1773 64.2257 61.2487C64.0532 61.3202 63.8964 61.4249 63.7644 61.557L58.0769 67.2445C57.9448 67.3765 57.8401 67.5333 57.7686 67.7058C57.6972 67.8783 57.6604 68.0632 57.6604 68.2499C57.6604 68.4367 57.6972 68.6216 57.7686 68.7941C57.8401 68.9666 57.9448 69.1233 58.0769 69.2554L63.7644 74.9429C63.8964 75.0749 64.0532 75.1797 64.2257 75.2511C64.3982 75.3226 64.5831 75.3594 64.7698 75.3594C64.9566 75.3594 65.1415 75.3226 65.314 75.2511C65.4865 75.1797 65.6432 75.0749 65.7753 74.9429L71.4628 69.2554C71.5948 69.1233 71.6996 68.9666 71.771 68.7941C71.8425 68.6216 71.8793 68.4367 71.8793 68.2499C71.8793 68.0632 71.8425 67.8783 71.771 67.7058C71.6996 67.5333 71.5948 67.3765 71.4628 67.2445L65.7753 61.557ZM64.7698 71.9265L61.093 68.2499L64.7698 64.5733L68.4464 68.2499L64.7698 71.9265Z" fill="black"/>
<path d="M69.0356 56.875H71.8794V59.7188H69.0356V56.875Z" fill="black"/>
<path d="M73.3013 46.9219H76.145V49.7656H73.3013V46.9219Z" fill="black"/>
<path d="M59.0825 78.2031H61.9263V81.0469H59.0825V78.2031Z" fill="black"/>
<path d="M67.6138 76.7812H70.4575V79.625H67.6138V76.7812Z" fill="black"/>
</svg>
